<?xml version="1.0" standalone="no"?>
<!DOCTYPE svg PUBLIC "-//W3C//DTD SVG 20010904//EN"
 "http://www.w3.org/TR/2001/REC-SVG-20010904/DTD/svg10.dtd">
<svg version="1.0" xmlns="http://www.w3.org/2000/svg"
 width="709.000000pt" height="708.000000pt" viewBox="0 0 709.000000 708.000000"
 preserveAspectRatio="xMidYMid meet">

<g transform="translate(0.000000,708.000000) scale(0.100000,-0.100000)"
fill="#000000" stroke="none">
<path d="M1773 7073 c978 -2 2576 -2 3550 0 975 1 175 2 -1778 2 -1952 0
-2750 -1 -1772 -2z"/>
<path d="M2322 6773 c-59 -101 -97 -180 -143 -295 -40 -102 -48 -121 -87 -208
-10 -25 -32 -81 -47 -125 -15 -44 -33 -93 -40 -110 -26 -61 -126 -373 -179
-555 -47 -159 -135 -558 -160 -725 -33 -210 -40 -456 -16 -520 6 -16 51 -34
206 -84 222 -72 336 -112 331 -118 -2 -2 -71 19 -153 46 -205 68 -371 121
-379 121 -13 0 7 -105 23 -122 12 -15 13 -18 1 -18 -12 0 -12 -2 -1 -9 8 -5
15 -27 16 -49 2 -39 16 -73 16 -41 1 9 4 8 11 -5 9 -14 8 -20 -2 -27 -11 -7
-10 -9 3 -9 12 0 29 -22 49 -62 43 -86 46 -89 76 -77 45 17 464 63 663 73 72
3 77 3 30 -4 -30 -5 -113 -14 -185 -20 -141 -12 -517 -59 -523 -65 -2 -2 6
-17 18 -33 12 -17 20 -34 16 -40 -3 -5 4 -18 15 -28 19 -17 23 -17 132 9 149
36 268 60 273 55 2 -3 -31 -12 -74 -22 -154 -35 -287 -68 -300 -75 -10 -6 -3
-15 22 -35 42 -31 26 -34 271 46 98 32 186 57 195 56 8 -2 -57 -27 -144 -56
-224 -75 -232 -78 -215 -99 13 -15 11 -15 -13 1 -19 12 -28 14 -33 5 -4 -6 -3
-14 2 -18 5 -3 55 -41 110 -83 151 -115 285 -199 473 -296 92 -48 177 -94 189
-102 32 -22 53 -110 45 -190 -6 -55 -33 -148 -69 -235 -8 -18 -7 -19 9 -6 16
13 16 12 5 -15 -7 -16 -21 -41 -31 -56 -10 -14 -18 -28 -18 -31 0 -3 -16 -34
-36 -69 -20 -34 -70 -128 -111 -208 -41 -80 -80 -153 -85 -164 -8 -15 -12 -16
-19 -5 -7 11 -8 9 -7 -6 2 -11 -58 -141 -133 -290 -116 -229 -289 -606 -289
-630 0 -4 -7 -21 -15 -38 -59 -129 -174 -486 -211 -659 -8 -40 -17 -80 -19
-88 -19 -81 -65 -319 -65 -337 l0 -23 1331 0 1330 0 -3 37 c-3 37 -4 38 -40
35 -51 -4 -49 14 2 23 l40 7 0 54 c0 32 4 54 11 54 6 0 10 -17 9 -42 -4 -72
-5 -71 44 -64 27 4 47 3 51 -4 3 -5 0 -10 -7 -11 -82 -4 -98 -13 -98 -54 l0
-35 524 0 523 0 -8 51 c-4 28 -12 65 -18 83 -5 17 -17 65 -26 106 -57 254
-204 691 -311 928 -13 29 -24 55 -24 58 0 8 -198 403 -229 457 -12 21 -30 50
-40 65 -10 15 -39 59 -65 97 -92 141 -175 249 -311 405 -55 63 -117 135 -137
160 -47 59 -105 174 -129 258 -27 96 -21 237 10 237 8 0 19 14 24 30 20 64 36
73 255 154 87 32 201 79 253 104 51 25 120 57 153 71 77 34 163 97 257 188 83
80 109 116 87 122 -7 2 -132 27 -278 55 -250 49 -338 68 -315 70 16 1 335 -55
470 -84 66 -14 130 -25 141 -25 27 0 93 84 137 172 17 35 32 65 32 68 4 16 18
49 31 74 14 28 14 28 -8 23 -13 -3 -111 -23 -218 -45 -107 -22 -230 -48 -273
-57 -137 -28 -105 -11 39 23 184 42 456 102 464 102 4 0 12 17 19 38 7 22 25
46 40 55 25 16 25 16 3 17 -25 0 -24 8 3 100 40 131 81 446 77 593 -1 32 3 57
8 57 6 0 10 5 10 11 0 5 -4 7 -10 4 -5 -3 -10 1 -10 9 0 8 5 18 10 21 6 3 10
13 10 21 0 8 -4 12 -10 9 -6 -4 -10 22 -10 70 0 48 4 74 10 70 6 -3 10 -1 10
4 0 6 -4 11 -10 11 -5 0 -10 11 -10 25 0 14 5 25 11 25 5 0 8 4 4 9 -3 5 -7
58 -10 118 -8 196 -25 445 -31 454 -2 4 -8 85 -14 180 -21 363 -47 617 -68
655 -8 14 -13 12 -36 -18 -14 -19 -26 -37 -26 -41 0 -23 -174 -255 -314 -420
-196 -231 -560 -587 -599 -587 -13 0 -47 7 -77 15 -93 26 -248 55 -395 75
-137 18 -178 22 -380 37 -111 8 -604 8 -612 -1 -3 -3 14 -29 39 -58 77 -93 73
-96 -10 -8 -45 47 -81 88 -82 92 0 4 -22 33 -48 65 -54 65 -192 250 -192 258
0 2 -16 30 -37 62 -92 144 -206 457 -257 708 -13 60 -35 148 -39 152 -3 2 -23
-26 -45 -64z m277 -906 c13 -34 53 -122 88 -196 35 -74 62 -135 60 -137 -6 -6
-105 170 -130 231 -32 77 -58 165 -49 165 4 0 18 -28 31 -63z m-302 -199 c-3
-7 -5 -2 -5 12 0 14 2 19 5 13 2 -7 2 -19 0 -25z m3 -43 c0 -18 8 -29 28 -37
l27 -12 -27 -4 c-22 -3 -28 -9 -29 -30 l-1 -27 -7 25 c-4 15 -15 26 -29 28
-30 5 -28 18 4 26 21 6 25 12 21 31 -2 14 0 25 4 25 5 0 9 -11 9 -25z m553
-562 c-13 -2 -33 -2 -45 0 -13 2 -3 4 22 4 25 0 35 -2 23 -4z m1770 -52 c5 -5
-7 -4 -27 3 -46 16 -59 28 -16 16 19 -5 38 -14 43 -19z m-1806 -167 c-3 -3
-12 -4 -19 -1 -8 3 -5 6 6 6 11 1 17 -2 13 -5z m-60 -18 c17 0 29 -3 27 -6 -6
-6 115 -42 140 -42 10 1 16 -2 13 -5 -3 -3 15 -16 41 -29 53 -27 56 -28 47
-14 -3 6 3 10 14 10 14 0 19 -5 15 -15 -4 -10 0 -15 12 -15 14 0 16 -2 6 -9
-11 -6 -10 -10 5 -16 10 -5 23 -9 28 -9 6 -1 10 -7 10 -14 0 -8 8 -19 18 -26
9 -7 17 -18 17 -25 0 -6 3 -11 8 -11 10 0 40 -70 52 -122 17 -73 12 -150 -15
-228 -40 -118 -104 -180 -237 -232 -73 -28 -264 -31 -358 -5 -86 23 -195 78
-247 124 -124 112 -166 304 -100 453 46 106 186 226 271 234 20 2 38 5 40 7 3
2 40 2 83 0 43 -2 92 -4 110 -5z m173 -12 c0 -2 -12 -4 -27 -4 -21 0 -24 3
-14 9 13 8 41 5 41 -5z m68 -27 c7 -5 10 -12 7 -17 -3 -5 -15 0 -26 11 -11 11
-27 18 -34 15 -9 -3 -12 0 -9 9 5 13 19 9 62 -18z m-23 -25 c-3 -3 -11 0 -18
7 -9 10 -8 11 6 5 10 -3 15 -9 12 -12z m65 4 c0 -2 -7 -7 -16 -10 -8 -3 -12
-2 -9 4 6 10 25 14 25 6z m1517 -62 c-3 -3 -12 -4 -19 -1 -8 3 -5 6 6 6 11 1
17 -2 13 -5z m231 -33 c118 -44 180 -100 230 -209 37 -79 38 -217 4 -308 -51
-134 -173 -224 -357 -264 -329 -71 -586 124 -558 424 15 158 152 307 318 345
28 6 75 18 105 26 72 18 190 12 258 -14z m-2145 -818 c-7 -2 -21 -2 -30 0 -10
3 -4 5 12 5 17 0 24 -2 18 -5z m1037 -50 c0 -27 -74 -89 -124 -103 -27 -7 -68
-10 -99 -7 -86 9 -187 64 -187 102 0 23 20 18 42 -10 31 -39 103 -66 179 -67
77 0 113 16 155 66 34 41 34 41 34 19z m1107 1 c-3 -3 -12 -4 -19 -1 -8 3 -5
6 6 6 11 1 17 -2 13 -5z m-2454 -71 c-7 -2 -19 -2 -25 0 -7 3 -2 5 12 5 14 0
19 -2 13 -5z m2234 -29 c-3 -3 -12 -4 -19 -1 -8 3 -5 6 6 6 11 1 17 -2 13 -5z
m-2583 -100 c8 -20 -8 -17 -28 5 -17 19 -17 19 2 14 12 -3 23 -11 26 -19z
m211 -187 c11 -11 -5 -3 -35 18 -30 21 -64 47 -75 58 -11 11 5 3 35 -18 30
-21 64 -47 75 -58z m99 -76 c-2 -3 -12 3 -22 13 -16 17 -16 18 5 5 12 -7 20
-15 17 -18z m101 -61 c3 -6 -1 -7 -9 -4 -18 7 -21 14 -7 14 6 0 13 -4 16 -10z
m407 -572 c-7 -7 -12 -8 -12 -2 0 6 3 14 7 17 3 4 9 5 12 2 2 -3 -1 -11 -7
-17z m1469 -355 c13 -16 12 -17 -3 -4 -17 13 -22 21 -14 21 2 0 10 -8 17 -17z
m154 -203 c21 -28 36 -53 34 -55 -3 -2 -21 21 -42 51 -48 68 -41 71 8 4z m66
-92 c11 -21 11 -22 -4 -9 -10 7 -17 17 -17 22 0 15 9 10 21 -13z m49 -82 c0
-12 -14 5 -31 39 -8 16 -6 15 10 -4 12 -13 21 -28 21 -35z m102 -151 c78 -125
108 -177 90 -160 -14 14 -182 283 -182 292 0 12 15 -9 92 -132z m-309 -13 c73
-111 127 -204 105 -182 -8 8 -47 67 -87 130 -39 63 -79 126 -89 140 -9 13 -12
21 -5 17 7 -4 41 -51 76 -105z m135 33 c-3 -3 -9 2 -12 12 -6 14 -5 15 5 6 7
-7 10 -15 7 -18z m37 -65 c3 -5 1 -10 -4 -10 -6 0 -11 5 -11 10 0 6 2 10 4 10
3 0 8 -4 11 -10z m23 -55 c-3 -3 -9 2 -12 12 -6 14 -5 15 5 6 7 -7 10 -15 7
-18z m37 -76 c9 -17 15 -33 13 -35 -3 -2 -12 12 -21 31 -21 43 -13 47 8 4z
m195 -20 c0 -6 -4 -7 -10 -4 -5 3 -10 11 -10 16 0 6 5 7 10 4 6 -3 10 -11 10
-16z m-296 -35 c3 -8 2 -12 -4 -9 -6 3 -10 10 -10 16 0 14 7 11 14 -7z m355
-67 c12 -22 21 -44 21 -50 0 -7 -6 -1 -14 13 -7 14 -25 48 -40 75 -19 34 -21
42 -7 25 11 -14 29 -42 40 -63z m-209 32 c12 -23 19 -43 17 -45 -4 -4 -47 70
-47 81 0 15 12 0 30 -36z m-125 1 c3 -5 1 -10 -4 -10 -6 0 -11 5 -11 10 0 6 2
10 4 10 3 0 8 -4 11 -10z m-1110 -100 c47 0 54 -18 8 -22 -35 -3 -38 -6 -42
-38 l-4 -35 -6 35 c-5 31 -10 36 -41 41 -35 6 -29 14 15 21 12 2 22 13 25 28
4 25 4 25 8 -2 3 -24 8 -28 37 -28z m1299 -35 c20 -42 36 -79 36 -83 -1 -8
-79 140 -80 151 -1 20 12 0 44 -68z m204 -20 c-3 -3 -9 2 -12 12 -6 14 -5 15
5 6 7 -7 10 -15 7 -18z m40 -80 c-3 -3 -9 2 -12 12 -6 14 -5 15 5 6 7 -7 10
-15 7 -18z m-163 -65 c3 -5 1 -10 -4 -10 -6 0 -11 5 -11 10 0 6 2 10 4 10 3 0
8 -4 11 -10z m100 -81 c9 -17 15 -33 13 -35 -3 -2 -12 12 -21 31 -21 43 -13
47 8 4z m-335 -17 c0 -13 -12 -22 -22 -16 -10 6 -1 24 13 24 5 0 9 -4 9 -8z
m370 -67 c0 -5 -5 -3 -10 5 -5 8 -10 20 -10 25 0 6 5 3 10 -5 5 -8 10 -19 10
-25z m-515 -5 c0 -8 -10 -16 -22 -18 -22 -3 -32 16 -16 32 12 11 38 2 38 -14z
m78 -229 c30 -12 41 -46 20 -66 -40 -41 -115 14 -77 56 20 22 24 22 57 10z
m527 -67 c0 -30 -25 -32 -41 -3 -8 17 -8 23 2 29 20 13 39 0 39 -26z m190
-489 c0 -5 -5 -3 -10 5 -5 8 -10 20 -10 25 0 6 5 3 10 -5 5 -8 10 -19 10 -25z
m20 -58 c0 -5 -4 -5 -10 -2 -5 3 -10 14 -10 23 0 15 2 15 10 2 5 -8 10 -19 10
-23z m-2980 -7 c0 -5 -4 -10 -10 -10 -5 0 -10 5 -10 10 0 6 5 10 10 10 6 0 10
-4 10 -10z m2988 -41 c-3 -8 -7 -3 -11 10 -4 17 -3 21 5 13 5 -5 8 -16 6 -23z
m-1688 -169 c0 -5 -2 -10 -4 -10 -3 0 -8 5 -11 10 -3 6 -1 10 4 10 6 0 11 -4
11 -10z"/>
<path d="M2747 4753 c-62 -69 -135 -391 -122 -539 6 -64 11 -84 28 -126 14
-33 19 -34 40 -10 87 96 154 533 102 659 -16 37 -25 41 -48 16z"/>
<path d="M4532 4647 c-14 -17 -62 -174 -67 -216 -2 -20 -9 -72 -15 -116 -30
-202 43 -479 98 -372 18 34 51 135 46 140 -3 2 0 17 6 33 12 31 16 259 6 364
-11 120 -47 200 -74 167z"/>
<path d="M3147 5593 c18 -2 50 -2 70 0 21 2 7 4 -32 4 -38 0 -55 -2 -38 -4z"/>
<path d="M3487 5593 c18 -2 50 -2 70 0 21 2 7 4 -32 4 -38 0 -55 -2 -38 -4z"/>
<path d="M3633 5583 c20 -2 54 -2 75 0 20 2 3 4 -38 4 -41 0 -58 -2 -37 -4z"/>
<path d="M3778 5573 c12 -2 30 -2 40 0 9 3 -1 5 -23 4 -22 0 -30 -2 -17 -4z"/>
<path d="M3863 5563 c9 -2 23 -2 30 0 6 3 -1 5 -18 5 -16 0 -22 -2 -12 -5z"/>
<path d="M3965 5549 c22 -4 54 -8 70 -7 26 0 25 1 -10 9 -22 4 -53 8 -70 7
-26 0 -25 -1 10 -9z"/>
<path d="M4095 5530 c11 -5 31 -8 45 -8 l25 0 -25 8 c-14 4 -34 8 -45 8 l-20
1 20 -9z"/>
<path d="M4228 5503 c6 -2 18 -2 25 0 6 3 1 5 -13 5 -14 0 -19 -2 -12 -5z"/>
<path d="M4288 5493 c7 -3 16 -2 19 1 4 3 -2 6 -13 5 -11 0 -14 -3 -6 -6z"/>
<path d="M4358 5473 c7 -3 16 -2 19 1 4 3 -2 6 -13 5 -11 0 -14 -3 -6 -6z"/>
<path d="M4448 5453 c7 -3 16 -2 19 1 4 3 -2 6 -13 5 -11 0 -14 -3 -6 -6z"/>
<path d="M5552 4930 c0 -14 2 -19 5 -12 2 6 2 18 0 25 -3 6 -5 1 -5 -13z"/>
<path d="M1810 3746 c0 -2 8 -10 18 -17 15 -13 16 -12 3 4 -13 16 -21 21 -21
13z"/>
<path d="M4141 2874 c0 -11 3 -14 6 -6 3 7 2 16 -1 19 -3 4 -6 -2 -5 -13z"/>
<path d="M4131 2794 c0 -11 3 -14 6 -6 3 7 2 16 -1 19 -3 4 -6 -2 -5 -13z"/>
<path d="M2727 2593 c-4 -3 -7 -11 -7 -17 0 -6 5 -5 12 2 6 6 9 14 7 17 -3 3
-9 2 -12 -2z"/>
<path d="M2520 2209 c-7 -11 -10 -23 -7 -25 2 -2 9 7 15 21 14 30 7 33 -8 4z"/>
</g>
</svg>
